<?xml version="1.0" encoding="iso-8859-1"?>
<!-- Generator: Adobe Illustrator 19.0.0, SVG Export Plug-In . SVG Version: 6.00 Build 0)  -->
<svg version="1.1" id="Capa_1" xmlns="http://www.w3.org/2000/svg" xmlns:xlink="http://www.w3.org/1999/xlink" x="0px" y="0px"
	 viewBox="0 0 464 464" style="enable-background:new 0 0 464 464;" xml:space="preserve">
<path style="fill:#808080;" d="M0,0h280v408H0V0z"/>
<path style="fill:#E6E6E6;" d="M440,192H304l-48,32v-32h-24c-13.255,0-24-10.745-24-24V56c0-13.255,10.745-24,24-24h208
	c13.255,0,24,10.745,24,24v112C464,181.255,453.255,192,440,192z"/>
<path style="fill:#0071BC;" d="M232,32h208c13.255,0,24,10.745,24,24v40l0,0H208l0,0V56C208,42.745,218.745,32,232,32z"/>
<path style="fill:#DA4836;" d="M232,56h16v16h-16V56z"/>
<path style="fill:#F8CF26;" d="M264,56h16v16h-16V56z"/>
<path style="fill:#3DBF50;" d="M296,56h16v16h-16V56z"/>
<path style="fill:#FBB03B;" d="M168,464L0,408V0l168,56V464z"/>
<path style="fill:#29ABE2;" d="M440,296H304l-48-32v32h-24c-13.255,0-24,10.745-24,24v80c0,13.255,10.745,24,24,24h208
	c13.255,0,24-10.745,24-24v-80C464,306.745,453.255,296,440,296z"/>
<g>
	<path style="fill:#999999;" d="M240,152h192v16H240V152z"/>
	<path style="fill:#999999;" d="M256,120h16v16h-16V120z"/>
	<path style="fill:#999999;" d="M288,120h144v16H288V120z"/>
</g>
<g>
	<path style="fill:#FBB03B;" d="M258.344,365.656l-16-16c-3.123-3.124-3.123-8.188,0-11.312l16-16l11.312,11.312L259.312,344
		l10.344,10.344L258.344,365.656z"/>
	<path style="fill:#FBB03B;" d="M317.656,365.656l-11.312-11.312L316.688,344l-10.344-10.344l11.312-11.312l16,16
		c3.123,3.124,3.123,8.188,0,11.312L317.656,365.656z"/>
	<path style="fill:#FBB03B;" d="M272.406,365.441l16.009-48.001l15.178,5.062l-16.009,48.001L272.406,365.441z"/>
	<path style="fill:#FBB03B;" d="M352,336h16v16h-16V336z"/>
	<path style="fill:#FBB03B;" d="M240,384h16v16h-16V384z"/>
	<path style="fill:#FBB03B;" d="M272,384h160v16H272V384z"/>
	<path style="fill:#FBB03B;" d="M384,336h16v16h-16V336z"/>
	<path style="fill:#FBB03B;" d="M416,336h16v16h-16V336z"/>
</g>
<circle style="fill:#F15A24;" cx="112" cy="240" r="24"/>
<g>
</g>
<g>
</g>
<g>
</g>
<g>
</g>
<g>
</g>
<g>
</g>
<g>
</g>
<g>
</g>
<g>
</g>
<g>
</g>
<g>
</g>
<g>
</g>
<g>
</g>
<g>
</g>
<g>
</g>
</svg>
