<svg id="Layer_1" enable-background="new 0 0 511.428 511.428" height="512" viewBox="0 0 511.428 511.428" width="512" xmlns="http://www.w3.org/2000/svg"><g><g><g><g><g><path d="m453.736 49.118h-144.78v10.998h-99.334v-10.998h-143.827c-9.475 0-17.156 7.681-17.156 17.156v320.102c0 8.948 7.254 16.202 16.202 16.202h380.2c13.75 0 24.897-11.147 24.897-24.897v-312.36c.001-8.949-7.253-16.203-16.202-16.203z" fill="#fdbf00"/></g></g></g><path d="m447.438 21.638h-138.482v10.998h-49.498v89.897h-.169v280.612h195.265c8.497 0 15.384-6.893 15.384-15.395v-348.89c-.963-2.389-4.693-17.222-22.5-17.222z" fill="#ff9100"/><path d="m452.786 21.638h-143.83v10.998h-99.334v-10.998h-145.175c-8.73 0-15.808 7.082-15.808 15.819v85.075h421.3v-83.728c0-9.481-7.68-17.166-17.153-17.166z" fill="#ff9100"/><path d="m453.782 21.638h-144.826v10.998h-49.667v89.897h210.65v-84.727c0-8.929-7.234-16.168-16.157-16.168z" fill="#ff641a"/><path d="m302.368 192.753h-86.158c-3.639 0-6.588-2.95-6.588-6.588v-164.527h99.334v164.527c0 3.638-2.95 6.588-6.588 6.588z" fill="#ffe470"/><path d="m259.289 21.993v170.404c0 .196.159.356.356.356h44.278c2.78 0 5.033-2.253 5.033-5.033v-165.727c0-.196-.159-.356-.356-.356h-48.956c-.196.001-.355.16-.355.356z" fill="#ffda2d"/></g><path d="m278.863 480.967c32.819 0 65.647-3.855 97.572-11.456l53.488-12.801.23-131.606-36.311-18.444c-28.425-14.347-61.332-14.878-90.245-1.437l-33.615 15.628c-7.34 3.413-15.338 5.181-23.432 5.181h-76.838c-10.999 0-19.916 8.917-19.916 19.916 0 10.999 8.917 19.916 19.916 19.916h135.292c10.247 0 18.728 8.611 17.869 18.821-.748 8.89-8.201 15.873-17.285 15.873l-154.826-2.171c-20.126.265-43.244-9.191-57.663-25.281l-61.24-59.998c-3.513-3.814-8.316-5.781-13.155-5.781-5.612 0-13.516 6.433-17.292 11.9-.149.215 1.954-3.345 1.834-3.113-3.499 6.773-4.89 17.957-.467 23.319l78.135 94.723c26.526 32.157 67.888 46.809 109.574 46.809h88.375z" fill="#ffd9b3"/><path d="m322.437 387.748c-1.995 7.379-8.73 12.81-16.74 12.81l-154.826-2.171c-12.878.17-26.972-3.657-39.238-10.64h-68.893l38.282 46.409c26.526 32.157 67.888 46.809 109.574 46.809h88.376c32.819 0 65.647-3.855 97.572-11.456l53.488-12.801.121-68.961h-107.716z" fill="#fc9"/><path d="m482.44 489.79h-24.8c-16.01 0-28.988-14.048-28.988-31.378v-140.35c0-17.33 12.978-31.378 28.988-31.378h24.801c16.01 0 28.988 14.049 28.988 31.378v140.351c-.001 17.329-12.979 31.377-28.989 31.377z" fill="#4d2ee6"/><path d="m428.652 387.748v70.664c0 17.33 12.978 31.378 28.988 31.378h24.801c16.01 0 28.988-14.049 28.988-31.378v-70.664z" fill="#012f7e"/></g></svg>